# xmcd CD database file
#
# Track frame offsets:
#	150
#	17800
#	34490
#	49012
#	68100
#	87050
#	108262
#	127365
#	146887
#	167120
#	187382
#
# Disc length: 2709 seconds
#
# Revision: 0
# Processed by: cddbd v1.4PL0 Copyright (c) Steve Scherf et al.
# Submitted via: CDex 1.50Beta7
#
DISCID=a70a930b
DTITLE=Jamie Warren - Just Not the Same
DYEAR=1998
DGENRE=Country
TTITLE0=The Way Love Goes
TTITLE1=Cried All the Way Home
TTITLE2=Reflections
TTITLE3=You Can't Get Your Goodbye Back
TTITLE4=Words You Can't Take Back
TTITLE5=She'll Find Someone to Love Her
TTITLE6=It's Just Not the Same
TTITLE7=The Sea Monkey Song
TTITLE8=Angelina
TTITLE9=Sunny Day In the Park
TTITLE10=What A Woman Wants to Hear
EXTD=YEAR: 1998
EXTT0=
EXTT1=
EXTT2=
EXTT3=
EXTT4=
EXTT5=
EXTT6=
EXTT7=
EXTT8=
EXTT9=
EXTT10=
PLAYORDER=
